<mxfile host="app.diagrams.net" modified="2023-05-12T20:56:04.033Z" agent="Mozilla/5.0 (Windows NT 10.0; Win64; x64) AppleWebKit/537.36 (KHTML, like Gecko) Chrome/113.0.0.0 Safari/537.36" etag="lDlO7HxoZvWediP4zGYd" version="21.2.9" type="device">
  <diagram id="C5RBs43oDa-KdzZeNtuy" name="Page-1">
    <mxGraphModel dx="1235" dy="684" grid="1" gridSize="10" guides="1" tooltips="1" connect="1" arrows="1" fold="1" page="1" pageScale="1" pageWidth="827" pageHeight="1169" math="0" shadow="0">
      <root>
        <mxCell id="WIyWlLk6GJQsqaUBKTNV-0" />
        <mxCell id="WIyWlLk6GJQsqaUBKTNV-1" parent="WIyWlLk6GJQsqaUBKTNV-0" />
        <mxCell id="zkfFHV4jXpPFQw0GAbJ--17" value="&lt;&lt;interface&gt;&gt;&#xa;GUIFactory" style="swimlane;fontStyle=0;align=center;verticalAlign=top;childLayout=stackLayout;horizontal=1;startSize=40;horizontalStack=0;resizeParent=1;resizeLast=0;collapsible=1;marginBottom=0;rounded=0;shadow=0;strokeWidth=1;labelBackgroundColor=none;fillColor=#F5AB50;strokeColor=#909090;fontColor=#1A1A1A;" parent="WIyWlLk6GJQsqaUBKTNV-1" vertex="1">
          <mxGeometry x="330" y="150" width="172" height="126" as="geometry">
            <mxRectangle x="550" y="140" width="160" height="26" as="alternateBounds" />
          </mxGeometry>
        </mxCell>
        <mxCell id="zkfFHV4jXpPFQw0GAbJ--23" value="" style="line;html=1;strokeWidth=1;align=left;verticalAlign=middle;spacingTop=-1;spacingLeft=3;spacingRight=3;rotatable=0;labelPosition=right;points=[];portConstraint=eastwest;labelBackgroundColor=none;fillColor=#F5AB50;strokeColor=#909090;fontColor=#1A1A1A;" parent="zkfFHV4jXpPFQw0GAbJ--17" vertex="1">
          <mxGeometry y="40" width="172" height="8" as="geometry" />
        </mxCell>
        <mxCell id="zkfFHV4jXpPFQw0GAbJ--24" value="+ createButton(): Button" style="text;align=left;verticalAlign=top;spacingLeft=4;spacingRight=4;overflow=hidden;rotatable=0;points=[[0,0.5],[1,0.5]];portConstraint=eastwest;labelBackgroundColor=none;fontColor=#1A1A1A;" parent="zkfFHV4jXpPFQw0GAbJ--17" vertex="1">
          <mxGeometry y="48" width="172" height="26" as="geometry" />
        </mxCell>
        <mxCell id="zkfFHV4jXpPFQw0GAbJ--25" value="+ createTextInput(): TextInput" style="text;align=left;verticalAlign=top;spacingLeft=4;spacingRight=4;overflow=hidden;rotatable=0;points=[[0,0.5],[1,0.5]];portConstraint=eastwest;labelBackgroundColor=none;fontColor=#1A1A1A;" parent="zkfFHV4jXpPFQw0GAbJ--17" vertex="1">
          <mxGeometry y="74" width="172" height="26" as="geometry" />
        </mxCell>
        <mxCell id="sNrwuepotN1zQKSBZnrh-1" value="+ createCursor(): Cursor" style="text;align=left;verticalAlign=top;spacingLeft=4;spacingRight=4;overflow=hidden;rotatable=0;points=[[0,0.5],[1,0.5]];portConstraint=eastwest;labelBackgroundColor=none;fontColor=#1A1A1A;" parent="zkfFHV4jXpPFQw0GAbJ--17" vertex="1">
          <mxGeometry y="100" width="172" height="26" as="geometry" />
        </mxCell>
        <mxCell id="sNrwuepotN1zQKSBZnrh-14" value="LightGUIFactory" style="swimlane;fontStyle=1;align=center;verticalAlign=top;childLayout=stackLayout;horizontal=1;startSize=30;horizontalStack=0;resizeParent=1;resizeLast=0;collapsible=1;marginBottom=0;rounded=0;shadow=0;strokeWidth=1;labelBackgroundColor=none;fillColor=#F5AB50;strokeColor=#909090;fontColor=#1A1A1A;" parent="WIyWlLk6GJQsqaUBKTNV-1" vertex="1">
          <mxGeometry x="90" y="360" width="172" height="120" as="geometry">
            <mxRectangle x="550" y="140" width="160" height="26" as="alternateBounds" />
          </mxGeometry>
        </mxCell>
        <mxCell id="sNrwuepotN1zQKSBZnrh-15" value="" style="line;html=1;strokeWidth=1;align=left;verticalAlign=middle;spacingTop=-1;spacingLeft=3;spacingRight=3;rotatable=0;labelPosition=right;points=[];portConstraint=eastwest;labelBackgroundColor=none;fillColor=#F5AB50;strokeColor=#909090;fontColor=#1A1A1A;" parent="sNrwuepotN1zQKSBZnrh-14" vertex="1">
          <mxGeometry y="30" width="172" height="8" as="geometry" />
        </mxCell>
        <mxCell id="sNrwuepotN1zQKSBZnrh-16" value="+ createButton(): Button" style="text;align=left;verticalAlign=top;spacingLeft=4;spacingRight=4;overflow=hidden;rotatable=0;points=[[0,0.5],[1,0.5]];portConstraint=eastwest;labelBackgroundColor=none;fontColor=#1A1A1A;" parent="sNrwuepotN1zQKSBZnrh-14" vertex="1">
          <mxGeometry y="38" width="172" height="26" as="geometry" />
        </mxCell>
        <mxCell id="sNrwuepotN1zQKSBZnrh-17" value="+ createTextInput(): TextInput" style="text;align=left;verticalAlign=top;spacingLeft=4;spacingRight=4;overflow=hidden;rotatable=0;points=[[0,0.5],[1,0.5]];portConstraint=eastwest;labelBackgroundColor=none;fontColor=#1A1A1A;" parent="sNrwuepotN1zQKSBZnrh-14" vertex="1">
          <mxGeometry y="64" width="172" height="26" as="geometry" />
        </mxCell>
        <mxCell id="sNrwuepotN1zQKSBZnrh-18" value="+ createCursor(): Cursor" style="text;align=left;verticalAlign=top;spacingLeft=4;spacingRight=4;overflow=hidden;rotatable=0;points=[[0,0.5],[1,0.5]];portConstraint=eastwest;labelBackgroundColor=none;fontColor=#1A1A1A;" parent="sNrwuepotN1zQKSBZnrh-14" vertex="1">
          <mxGeometry y="90" width="172" height="26" as="geometry" />
        </mxCell>
        <mxCell id="sNrwuepotN1zQKSBZnrh-19" value="DarkGUIFactory" style="swimlane;fontStyle=1;align=center;verticalAlign=top;childLayout=stackLayout;horizontal=1;startSize=30;horizontalStack=0;resizeParent=1;resizeLast=0;collapsible=1;marginBottom=0;rounded=0;shadow=0;strokeWidth=1;labelBackgroundColor=none;fillColor=#F5AB50;strokeColor=#909090;fontColor=#1A1A1A;" parent="WIyWlLk6GJQsqaUBKTNV-1" vertex="1">
          <mxGeometry x="330" y="360" width="172" height="120" as="geometry">
            <mxRectangle x="550" y="140" width="160" height="26" as="alternateBounds" />
          </mxGeometry>
        </mxCell>
        <mxCell id="sNrwuepotN1zQKSBZnrh-20" value="" style="line;html=1;strokeWidth=1;align=left;verticalAlign=middle;spacingTop=-1;spacingLeft=3;spacingRight=3;rotatable=0;labelPosition=right;points=[];portConstraint=eastwest;labelBackgroundColor=none;fillColor=#F5AB50;strokeColor=#909090;fontColor=#1A1A1A;" parent="sNrwuepotN1zQKSBZnrh-19" vertex="1">
          <mxGeometry y="30" width="172" height="8" as="geometry" />
        </mxCell>
        <mxCell id="sNrwuepotN1zQKSBZnrh-21" value="+ createButton(): Button" style="text;align=left;verticalAlign=top;spacingLeft=4;spacingRight=4;overflow=hidden;rotatable=0;points=[[0,0.5],[1,0.5]];portConstraint=eastwest;labelBackgroundColor=none;fontColor=#1A1A1A;" parent="sNrwuepotN1zQKSBZnrh-19" vertex="1">
          <mxGeometry y="38" width="172" height="26" as="geometry" />
        </mxCell>
        <mxCell id="sNrwuepotN1zQKSBZnrh-22" value="+ createTextInput(): TextInput" style="text;align=left;verticalAlign=top;spacingLeft=4;spacingRight=4;overflow=hidden;rotatable=0;points=[[0,0.5],[1,0.5]];portConstraint=eastwest;labelBackgroundColor=none;fontColor=#1A1A1A;" parent="sNrwuepotN1zQKSBZnrh-19" vertex="1">
          <mxGeometry y="64" width="172" height="26" as="geometry" />
        </mxCell>
        <mxCell id="sNrwuepotN1zQKSBZnrh-23" value="+ createCursor(): Cursor" style="text;align=left;verticalAlign=top;spacingLeft=4;spacingRight=4;overflow=hidden;rotatable=0;points=[[0,0.5],[1,0.5]];portConstraint=eastwest;labelBackgroundColor=none;fontColor=#1A1A1A;" parent="sNrwuepotN1zQKSBZnrh-19" vertex="1">
          <mxGeometry y="90" width="172" height="26" as="geometry" />
        </mxCell>
        <mxCell id="sNrwuepotN1zQKSBZnrh-24" value="ColorfullGUIFactory" style="swimlane;fontStyle=1;align=center;verticalAlign=top;childLayout=stackLayout;horizontal=1;startSize=30;horizontalStack=0;resizeParent=1;resizeLast=0;collapsible=1;marginBottom=0;rounded=0;shadow=0;strokeWidth=1;labelBackgroundColor=none;fillColor=#F5AB50;strokeColor=#909090;fontColor=#1A1A1A;" parent="WIyWlLk6GJQsqaUBKTNV-1" vertex="1">
          <mxGeometry x="570" y="360" width="172" height="120" as="geometry">
            <mxRectangle x="550" y="140" width="160" height="26" as="alternateBounds" />
          </mxGeometry>
        </mxCell>
        <mxCell id="sNrwuepotN1zQKSBZnrh-25" value="" style="line;html=1;strokeWidth=1;align=left;verticalAlign=middle;spacingTop=-1;spacingLeft=3;spacingRight=3;rotatable=0;labelPosition=right;points=[];portConstraint=eastwest;labelBackgroundColor=none;fillColor=#F5AB50;strokeColor=#909090;fontColor=#1A1A1A;" parent="sNrwuepotN1zQKSBZnrh-24" vertex="1">
          <mxGeometry y="30" width="172" height="8" as="geometry" />
        </mxCell>
        <mxCell id="sNrwuepotN1zQKSBZnrh-26" value="+ createButton(): Button" style="text;align=left;verticalAlign=top;spacingLeft=4;spacingRight=4;overflow=hidden;rotatable=0;points=[[0,0.5],[1,0.5]];portConstraint=eastwest;labelBackgroundColor=none;fontColor=#1A1A1A;" parent="sNrwuepotN1zQKSBZnrh-24" vertex="1">
          <mxGeometry y="38" width="172" height="26" as="geometry" />
        </mxCell>
        <mxCell id="sNrwuepotN1zQKSBZnrh-27" value="+ createTextInput(): TextInput" style="text;align=left;verticalAlign=top;spacingLeft=4;spacingRight=4;overflow=hidden;rotatable=0;points=[[0,0.5],[1,0.5]];portConstraint=eastwest;labelBackgroundColor=none;fontColor=#1A1A1A;" parent="sNrwuepotN1zQKSBZnrh-24" vertex="1">
          <mxGeometry y="64" width="172" height="26" as="geometry" />
        </mxCell>
        <mxCell id="sNrwuepotN1zQKSBZnrh-28" value="+ createCursor(): Cursor" style="text;align=left;verticalAlign=top;spacingLeft=4;spacingRight=4;overflow=hidden;rotatable=0;points=[[0,0.5],[1,0.5]];portConstraint=eastwest;labelBackgroundColor=none;fontColor=#1A1A1A;" parent="sNrwuepotN1zQKSBZnrh-24" vertex="1">
          <mxGeometry y="90" width="172" height="26" as="geometry" />
        </mxCell>
        <mxCell id="sNrwuepotN1zQKSBZnrh-29" value="" style="endArrow=block;dashed=1;endFill=0;endSize=12;html=1;rounded=0;strokeColor=#182E3E;fontColor=#1A1A1A;exitX=0.5;exitY=0;exitDx=0;exitDy=0;" parent="WIyWlLk6GJQsqaUBKTNV-1" source="sNrwuepotN1zQKSBZnrh-14" target="zkfFHV4jXpPFQw0GAbJ--17" edge="1">
          <mxGeometry width="160" relative="1" as="geometry">
            <mxPoint x="330" y="400" as="sourcePoint" />
            <mxPoint x="490" y="400" as="targetPoint" />
            <Array as="points">
              <mxPoint x="176" y="320" />
              <mxPoint x="416" y="320" />
            </Array>
          </mxGeometry>
        </mxCell>
        <mxCell id="sNrwuepotN1zQKSBZnrh-30" value="" style="endArrow=block;dashed=1;endFill=0;endSize=12;html=1;rounded=0;strokeColor=#182E3E;fontColor=#1A1A1A;exitX=0.5;exitY=0;exitDx=0;exitDy=0;" parent="WIyWlLk6GJQsqaUBKTNV-1" source="sNrwuepotN1zQKSBZnrh-24" target="zkfFHV4jXpPFQw0GAbJ--17" edge="1">
          <mxGeometry width="160" relative="1" as="geometry">
            <mxPoint x="246" y="370" as="sourcePoint" />
            <mxPoint x="420" y="280" as="targetPoint" />
            <Array as="points">
              <mxPoint x="656" y="320" />
              <mxPoint x="416" y="320" />
            </Array>
          </mxGeometry>
        </mxCell>
        <mxCell id="sNrwuepotN1zQKSBZnrh-32" value="" style="endArrow=block;dashed=1;endFill=0;endSize=12;html=1;rounded=0;strokeColor=#182E3E;fontColor=#1A1A1A;exitX=0.5;exitY=0;exitDx=0;exitDy=0;" parent="WIyWlLk6GJQsqaUBKTNV-1" source="sNrwuepotN1zQKSBZnrh-19" target="zkfFHV4jXpPFQw0GAbJ--17" edge="1">
          <mxGeometry width="160" relative="1" as="geometry">
            <mxPoint x="270" y="570" as="sourcePoint" />
            <mxPoint x="430" y="570" as="targetPoint" />
          </mxGeometry>
        </mxCell>
        <mxCell id="sNrwuepotN1zQKSBZnrh-33" value="CreateGUI" style="swimlane;fontStyle=1;align=center;verticalAlign=top;childLayout=stackLayout;horizontal=1;startSize=26;horizontalStack=0;resizeParent=1;resizeParentMax=0;resizeLast=0;collapsible=1;marginBottom=0;whiteSpace=wrap;html=1;strokeColor=#909090;fontColor=#1A1A1A;fillColor=#F5AB50;" parent="WIyWlLk6GJQsqaUBKTNV-1" vertex="1">
          <mxGeometry x="880" y="183" width="160" height="60" as="geometry" />
        </mxCell>
        <mxCell id="sNrwuepotN1zQKSBZnrh-34" value="+ factory: GUIFactory" style="text;strokeColor=none;fillColor=none;align=left;verticalAlign=top;spacingLeft=4;spacingRight=4;overflow=hidden;rotatable=0;points=[[0,0.5],[1,0.5]];portConstraint=eastwest;whiteSpace=wrap;html=1;fontColor=#1A1A1A;" parent="sNrwuepotN1zQKSBZnrh-33" vertex="1">
          <mxGeometry y="26" width="160" height="26" as="geometry" />
        </mxCell>
        <mxCell id="sNrwuepotN1zQKSBZnrh-35" value="" style="line;strokeWidth=1;fillColor=none;align=left;verticalAlign=middle;spacingTop=-1;spacingLeft=3;spacingRight=3;rotatable=0;labelPosition=right;points=[];portConstraint=eastwest;strokeColor=inherit;fontColor=#1A1A1A;" parent="sNrwuepotN1zQKSBZnrh-33" vertex="1">
          <mxGeometry y="52" width="160" height="8" as="geometry" />
        </mxCell>
        <mxCell id="sNrwuepotN1zQKSBZnrh-78" value="ColorfullButton" style="swimlane;fontStyle=1;align=center;verticalAlign=top;childLayout=stackLayout;horizontal=1;startSize=25;horizontalStack=0;resizeParent=1;resizeParentMax=0;resizeLast=0;collapsible=1;marginBottom=0;whiteSpace=wrap;html=1;strokeColor=#909090;fontColor=#1A1A1A;fillColor=#F5AB50;" parent="WIyWlLk6GJQsqaUBKTNV-1" vertex="1">
          <mxGeometry x="619" y="529.75" width="133" height="33" as="geometry" />
        </mxCell>
        <mxCell id="sNrwuepotN1zQKSBZnrh-81" value="" style="line;strokeWidth=1;fillColor=none;align=left;verticalAlign=middle;spacingTop=-1;spacingLeft=3;spacingRight=3;rotatable=0;labelPosition=right;points=[];portConstraint=eastwest;strokeColor=inherit;fontColor=#1A1A1A;" parent="sNrwuepotN1zQKSBZnrh-78" vertex="1">
          <mxGeometry y="25" width="133" height="8" as="geometry" />
        </mxCell>
        <mxCell id="sNrwuepotN1zQKSBZnrh-82" value="ColorfullTextInput" style="swimlane;fontStyle=1;align=center;verticalAlign=top;childLayout=stackLayout;horizontal=1;startSize=25;horizontalStack=0;resizeParent=1;resizeParentMax=0;resizeLast=0;collapsible=1;marginBottom=0;whiteSpace=wrap;html=1;strokeColor=#909090;fontColor=#1A1A1A;fillColor=#F5AB50;" parent="WIyWlLk6GJQsqaUBKTNV-1" vertex="1">
          <mxGeometry x="619" y="579.25" width="131" height="33" as="geometry" />
        </mxCell>
        <mxCell id="sNrwuepotN1zQKSBZnrh-83" value="" style="line;strokeWidth=1;fillColor=none;align=left;verticalAlign=middle;spacingTop=-1;spacingLeft=3;spacingRight=3;rotatable=0;labelPosition=right;points=[];portConstraint=eastwest;strokeColor=inherit;fontColor=#1A1A1A;" parent="sNrwuepotN1zQKSBZnrh-82" vertex="1">
          <mxGeometry y="25" width="131" height="8" as="geometry" />
        </mxCell>
        <mxCell id="sNrwuepotN1zQKSBZnrh-84" value="ColorfullCursor" style="swimlane;fontStyle=1;align=center;verticalAlign=top;childLayout=stackLayout;horizontal=1;startSize=25;horizontalStack=0;resizeParent=1;resizeParentMax=0;resizeLast=0;collapsible=1;marginBottom=0;whiteSpace=wrap;html=1;strokeColor=#909090;fontColor=#1A1A1A;fillColor=#F5AB50;" parent="WIyWlLk6GJQsqaUBKTNV-1" vertex="1">
          <mxGeometry x="619" y="634.25" width="131" height="33" as="geometry" />
        </mxCell>
        <mxCell id="sNrwuepotN1zQKSBZnrh-85" value="" style="line;strokeWidth=1;fillColor=none;align=left;verticalAlign=middle;spacingTop=-1;spacingLeft=3;spacingRight=3;rotatable=0;labelPosition=right;points=[];portConstraint=eastwest;strokeColor=inherit;fontColor=#1A1A1A;" parent="sNrwuepotN1zQKSBZnrh-84" vertex="1">
          <mxGeometry y="25" width="131" height="8" as="geometry" />
        </mxCell>
        <mxCell id="sNrwuepotN1zQKSBZnrh-86" value="Button" style="swimlane;fontStyle=1;align=center;verticalAlign=top;childLayout=stackLayout;horizontal=1;startSize=25;horizontalStack=0;resizeParent=1;resizeParentMax=0;resizeLast=0;collapsible=1;marginBottom=0;whiteSpace=wrap;html=1;strokeColor=#909090;fontColor=#1A1A1A;fillColor=#F5AB50;" parent="WIyWlLk6GJQsqaUBKTNV-1" vertex="1">
          <mxGeometry x="895" y="690" width="130" height="33" as="geometry" />
        </mxCell>
        <mxCell id="sNrwuepotN1zQKSBZnrh-87" value="" style="line;strokeWidth=1;fillColor=none;align=left;verticalAlign=middle;spacingTop=-1;spacingLeft=3;spacingRight=3;rotatable=0;labelPosition=right;points=[];portConstraint=eastwest;strokeColor=inherit;fontColor=#1A1A1A;" parent="sNrwuepotN1zQKSBZnrh-86" vertex="1">
          <mxGeometry y="25" width="130" height="8" as="geometry" />
        </mxCell>
        <mxCell id="sNrwuepotN1zQKSBZnrh-88" value="TextInput" style="swimlane;fontStyle=1;align=center;verticalAlign=top;childLayout=stackLayout;horizontal=1;startSize=25;horizontalStack=0;resizeParent=1;resizeParentMax=0;resizeLast=0;collapsible=1;marginBottom=0;whiteSpace=wrap;html=1;strokeColor=#909090;fontColor=#1A1A1A;fillColor=#F5AB50;" parent="WIyWlLk6GJQsqaUBKTNV-1" vertex="1">
          <mxGeometry x="895" y="730" width="131" height="33" as="geometry" />
        </mxCell>
        <mxCell id="sNrwuepotN1zQKSBZnrh-89" value="" style="line;strokeWidth=1;fillColor=none;align=left;verticalAlign=middle;spacingTop=-1;spacingLeft=3;spacingRight=3;rotatable=0;labelPosition=right;points=[];portConstraint=eastwest;strokeColor=inherit;fontColor=#1A1A1A;" parent="sNrwuepotN1zQKSBZnrh-88" vertex="1">
          <mxGeometry y="25" width="131" height="8" as="geometry" />
        </mxCell>
        <mxCell id="sNrwuepotN1zQKSBZnrh-90" value="Cursor" style="swimlane;fontStyle=1;align=center;verticalAlign=top;childLayout=stackLayout;horizontal=1;startSize=25;horizontalStack=0;resizeParent=1;resizeParentMax=0;resizeLast=0;collapsible=1;marginBottom=0;whiteSpace=wrap;html=1;strokeColor=#909090;fontColor=#1A1A1A;fillColor=#F5AB50;" parent="WIyWlLk6GJQsqaUBKTNV-1" vertex="1">
          <mxGeometry x="895" y="770" width="131" height="33" as="geometry" />
        </mxCell>
        <mxCell id="sNrwuepotN1zQKSBZnrh-91" value="" style="line;strokeWidth=1;fillColor=none;align=left;verticalAlign=middle;spacingTop=-1;spacingLeft=3;spacingRight=3;rotatable=0;labelPosition=right;points=[];portConstraint=eastwest;strokeColor=inherit;fontColor=#1A1A1A;" parent="sNrwuepotN1zQKSBZnrh-90" vertex="1">
          <mxGeometry y="25" width="131" height="8" as="geometry" />
        </mxCell>
        <mxCell id="sNrwuepotN1zQKSBZnrh-99" value="DarkButton" style="swimlane;fontStyle=1;align=center;verticalAlign=top;childLayout=stackLayout;horizontal=1;startSize=25;horizontalStack=0;resizeParent=1;resizeParentMax=0;resizeLast=0;collapsible=1;marginBottom=0;whiteSpace=wrap;html=1;strokeColor=#909090;fontColor=#1A1A1A;fillColor=#F5AB50;" parent="WIyWlLk6GJQsqaUBKTNV-1" vertex="1">
          <mxGeometry x="379" y="529.75" width="130" height="33" as="geometry" />
        </mxCell>
        <mxCell id="sNrwuepotN1zQKSBZnrh-100" value="" style="line;strokeWidth=1;fillColor=none;align=left;verticalAlign=middle;spacingTop=-1;spacingLeft=3;spacingRight=3;rotatable=0;labelPosition=right;points=[];portConstraint=eastwest;strokeColor=inherit;fontColor=#1A1A1A;" parent="sNrwuepotN1zQKSBZnrh-99" vertex="1">
          <mxGeometry y="25" width="130" height="8" as="geometry" />
        </mxCell>
        <mxCell id="sNrwuepotN1zQKSBZnrh-101" value="DarkTextInput" style="swimlane;fontStyle=1;align=center;verticalAlign=top;childLayout=stackLayout;horizontal=1;startSize=25;horizontalStack=0;resizeParent=1;resizeParentMax=0;resizeLast=0;collapsible=1;marginBottom=0;whiteSpace=wrap;html=1;strokeColor=#909090;fontColor=#1A1A1A;fillColor=#F5AB50;" parent="WIyWlLk6GJQsqaUBKTNV-1" vertex="1">
          <mxGeometry x="379" y="579.25" width="131" height="33" as="geometry" />
        </mxCell>
        <mxCell id="sNrwuepotN1zQKSBZnrh-102" value="" style="line;strokeWidth=1;fillColor=none;align=left;verticalAlign=middle;spacingTop=-1;spacingLeft=3;spacingRight=3;rotatable=0;labelPosition=right;points=[];portConstraint=eastwest;strokeColor=inherit;fontColor=#1A1A1A;" parent="sNrwuepotN1zQKSBZnrh-101" vertex="1">
          <mxGeometry y="25" width="131" height="8" as="geometry" />
        </mxCell>
        <mxCell id="sNrwuepotN1zQKSBZnrh-103" value="DarkCursor" style="swimlane;fontStyle=1;align=center;verticalAlign=top;childLayout=stackLayout;horizontal=1;startSize=25;horizontalStack=0;resizeParent=1;resizeParentMax=0;resizeLast=0;collapsible=1;marginBottom=0;whiteSpace=wrap;html=1;strokeColor=#909090;fontColor=#1A1A1A;fillColor=#F5AB50;" parent="WIyWlLk6GJQsqaUBKTNV-1" vertex="1">
          <mxGeometry x="379" y="634.25" width="131" height="33" as="geometry" />
        </mxCell>
        <mxCell id="sNrwuepotN1zQKSBZnrh-104" value="" style="line;strokeWidth=1;fillColor=none;align=left;verticalAlign=middle;spacingTop=-1;spacingLeft=3;spacingRight=3;rotatable=0;labelPosition=right;points=[];portConstraint=eastwest;strokeColor=inherit;fontColor=#1A1A1A;" parent="sNrwuepotN1zQKSBZnrh-103" vertex="1">
          <mxGeometry y="25" width="131" height="8" as="geometry" />
        </mxCell>
        <mxCell id="sNrwuepotN1zQKSBZnrh-107" value="LightButton" style="swimlane;fontStyle=1;align=center;verticalAlign=top;childLayout=stackLayout;horizontal=1;startSize=25;horizontalStack=0;resizeParent=1;resizeParentMax=0;resizeLast=0;collapsible=1;marginBottom=0;whiteSpace=wrap;html=1;strokeColor=#909090;fontColor=#1A1A1A;fillColor=#F5AB50;" parent="WIyWlLk6GJQsqaUBKTNV-1" vertex="1">
          <mxGeometry x="139" y="529.75" width="130" height="33" as="geometry" />
        </mxCell>
        <mxCell id="sNrwuepotN1zQKSBZnrh-108" value="" style="line;strokeWidth=1;fillColor=none;align=left;verticalAlign=middle;spacingTop=-1;spacingLeft=3;spacingRight=3;rotatable=0;labelPosition=right;points=[];portConstraint=eastwest;strokeColor=inherit;fontColor=#1A1A1A;" parent="sNrwuepotN1zQKSBZnrh-107" vertex="1">
          <mxGeometry y="25" width="130" height="8" as="geometry" />
        </mxCell>
        <mxCell id="sNrwuepotN1zQKSBZnrh-109" value="LightTextInput" style="swimlane;fontStyle=1;align=center;verticalAlign=top;childLayout=stackLayout;horizontal=1;startSize=25;horizontalStack=0;resizeParent=1;resizeParentMax=0;resizeLast=0;collapsible=1;marginBottom=0;whiteSpace=wrap;html=1;strokeColor=#909090;fontColor=#1A1A1A;fillColor=#F5AB50;" parent="WIyWlLk6GJQsqaUBKTNV-1" vertex="1">
          <mxGeometry x="139" y="579.25" width="131" height="33" as="geometry" />
        </mxCell>
        <mxCell id="sNrwuepotN1zQKSBZnrh-110" value="" style="line;strokeWidth=1;fillColor=none;align=left;verticalAlign=middle;spacingTop=-1;spacingLeft=3;spacingRight=3;rotatable=0;labelPosition=right;points=[];portConstraint=eastwest;strokeColor=inherit;fontColor=#1A1A1A;" parent="sNrwuepotN1zQKSBZnrh-109" vertex="1">
          <mxGeometry y="25" width="131" height="8" as="geometry" />
        </mxCell>
        <mxCell id="sNrwuepotN1zQKSBZnrh-111" value="LightCursor" style="swimlane;fontStyle=1;align=center;verticalAlign=top;childLayout=stackLayout;horizontal=1;startSize=25;horizontalStack=0;resizeParent=1;resizeParentMax=0;resizeLast=0;collapsible=1;marginBottom=0;whiteSpace=wrap;html=1;strokeColor=#909090;fontColor=#1A1A1A;fillColor=#F5AB50;" parent="WIyWlLk6GJQsqaUBKTNV-1" vertex="1">
          <mxGeometry x="139" y="634.25" width="131" height="33" as="geometry" />
        </mxCell>
        <mxCell id="sNrwuepotN1zQKSBZnrh-112" value="" style="line;strokeWidth=1;fillColor=none;align=left;verticalAlign=middle;spacingTop=-1;spacingLeft=3;spacingRight=3;rotatable=0;labelPosition=right;points=[];portConstraint=eastwest;strokeColor=inherit;fontColor=#1A1A1A;" parent="sNrwuepotN1zQKSBZnrh-111" vertex="1">
          <mxGeometry y="25" width="131" height="8" as="geometry" />
        </mxCell>
        <mxCell id="sNrwuepotN1zQKSBZnrh-115" value="Use" style="endArrow=open;endSize=12;dashed=1;html=1;rounded=0;strokeColor=#182E3E;fontColor=#1A1A1A;" parent="WIyWlLk6GJQsqaUBKTNV-1" edge="1">
          <mxGeometry width="160" relative="1" as="geometry">
            <mxPoint x="340" y="650.38" as="sourcePoint" />
            <mxPoint x="379" y="650.51" as="targetPoint" />
          </mxGeometry>
        </mxCell>
        <mxCell id="sNrwuepotN1zQKSBZnrh-116" value="Use" style="endArrow=open;endSize=12;dashed=1;html=1;rounded=0;strokeColor=#182E3E;fontColor=#1A1A1A;" parent="WIyWlLk6GJQsqaUBKTNV-1" target="sNrwuepotN1zQKSBZnrh-101" edge="1">
          <mxGeometry width="160" relative="1" as="geometry">
            <mxPoint x="340" y="596" as="sourcePoint" />
            <mxPoint x="389" y="660.51" as="targetPoint" />
          </mxGeometry>
        </mxCell>
        <mxCell id="sNrwuepotN1zQKSBZnrh-117" value="Use" style="endArrow=open;endSize=12;dashed=1;html=1;rounded=0;strokeColor=#182E3E;fontColor=#1A1A1A;" parent="WIyWlLk6GJQsqaUBKTNV-1" edge="1">
          <mxGeometry width="160" relative="1" as="geometry">
            <mxPoint x="340" y="545.88" as="sourcePoint" />
            <mxPoint x="379" y="546.01" as="targetPoint" />
          </mxGeometry>
        </mxCell>
        <mxCell id="sNrwuepotN1zQKSBZnrh-118" value="" style="endArrow=none;dashed=1;html=1;rounded=0;strokeColor=#182E3E;fontColor=#1A1A1A;" parent="WIyWlLk6GJQsqaUBKTNV-1" edge="1">
          <mxGeometry width="50" height="50" relative="1" as="geometry">
            <mxPoint x="340" y="650" as="sourcePoint" />
            <mxPoint x="340" y="480" as="targetPoint" />
            <Array as="points">
              <mxPoint x="340" y="550" />
            </Array>
          </mxGeometry>
        </mxCell>
        <mxCell id="sNrwuepotN1zQKSBZnrh-119" value="Use" style="endArrow=open;endSize=12;dashed=1;html=1;rounded=0;strokeColor=#182E3E;fontColor=#1A1A1A;" parent="WIyWlLk6GJQsqaUBKTNV-1" edge="1">
          <mxGeometry width="160" relative="1" as="geometry">
            <mxPoint x="100" y="650.38" as="sourcePoint" />
            <mxPoint x="139" y="650.51" as="targetPoint" />
          </mxGeometry>
        </mxCell>
        <mxCell id="sNrwuepotN1zQKSBZnrh-120" value="Use" style="endArrow=open;endSize=12;dashed=1;html=1;rounded=0;strokeColor=#182E3E;fontColor=#1A1A1A;" parent="WIyWlLk6GJQsqaUBKTNV-1" edge="1">
          <mxGeometry width="160" relative="1" as="geometry">
            <mxPoint x="100" y="596" as="sourcePoint" />
            <mxPoint x="139" y="596" as="targetPoint" />
          </mxGeometry>
        </mxCell>
        <mxCell id="sNrwuepotN1zQKSBZnrh-121" value="Use" style="endArrow=open;endSize=12;dashed=1;html=1;rounded=0;strokeColor=#182E3E;fontColor=#1A1A1A;" parent="WIyWlLk6GJQsqaUBKTNV-1" edge="1">
          <mxGeometry width="160" relative="1" as="geometry">
            <mxPoint x="100" y="545.88" as="sourcePoint" />
            <mxPoint x="139" y="546.01" as="targetPoint" />
          </mxGeometry>
        </mxCell>
        <mxCell id="sNrwuepotN1zQKSBZnrh-122" value="" style="endArrow=none;dashed=1;html=1;rounded=0;strokeColor=#182E3E;fontColor=#1A1A1A;" parent="WIyWlLk6GJQsqaUBKTNV-1" edge="1">
          <mxGeometry width="50" height="50" relative="1" as="geometry">
            <mxPoint x="100" y="650" as="sourcePoint" />
            <mxPoint x="100" y="480" as="targetPoint" />
            <Array as="points">
              <mxPoint x="100" y="550" />
            </Array>
          </mxGeometry>
        </mxCell>
        <mxCell id="sNrwuepotN1zQKSBZnrh-123" value="Use" style="endArrow=open;endSize=12;dashed=1;html=1;rounded=0;strokeColor=#182E3E;fontColor=#1A1A1A;" parent="WIyWlLk6GJQsqaUBKTNV-1" edge="1">
          <mxGeometry width="160" relative="1" as="geometry">
            <mxPoint x="580" y="650.38" as="sourcePoint" />
            <mxPoint x="619" y="650.51" as="targetPoint" />
          </mxGeometry>
        </mxCell>
        <mxCell id="sNrwuepotN1zQKSBZnrh-124" value="Use" style="endArrow=open;endSize=12;dashed=1;html=1;rounded=0;strokeColor=#182E3E;fontColor=#1A1A1A;" parent="WIyWlLk6GJQsqaUBKTNV-1" edge="1">
          <mxGeometry width="160" relative="1" as="geometry">
            <mxPoint x="580" y="596" as="sourcePoint" />
            <mxPoint x="619" y="596" as="targetPoint" />
          </mxGeometry>
        </mxCell>
        <mxCell id="sNrwuepotN1zQKSBZnrh-125" value="Use" style="endArrow=open;endSize=12;dashed=1;html=1;rounded=0;strokeColor=#182E3E;fontColor=#1A1A1A;" parent="WIyWlLk6GJQsqaUBKTNV-1" edge="1">
          <mxGeometry width="160" relative="1" as="geometry">
            <mxPoint x="580" y="545.88" as="sourcePoint" />
            <mxPoint x="619" y="546.01" as="targetPoint" />
          </mxGeometry>
        </mxCell>
        <mxCell id="sNrwuepotN1zQKSBZnrh-126" value="" style="endArrow=none;dashed=1;html=1;rounded=0;strokeColor=#182E3E;fontColor=#1A1A1A;" parent="WIyWlLk6GJQsqaUBKTNV-1" edge="1">
          <mxGeometry width="50" height="50" relative="1" as="geometry">
            <mxPoint x="580" y="650" as="sourcePoint" />
            <mxPoint x="580" y="480" as="targetPoint" />
            <Array as="points">
              <mxPoint x="580" y="550" />
            </Array>
          </mxGeometry>
        </mxCell>
        <mxCell id="sNrwuepotN1zQKSBZnrh-127" value="Extends" style="endArrow=block;endSize=16;endFill=0;html=1;rounded=0;strokeColor=#182E3E;fontColor=#1A1A1A;" parent="WIyWlLk6GJQsqaUBKTNV-1" target="sNrwuepotN1zQKSBZnrh-86" edge="1">
          <mxGeometry width="160" relative="1" as="geometry">
            <mxPoint x="800" y="710" as="sourcePoint" />
            <mxPoint x="650" y="810" as="targetPoint" />
          </mxGeometry>
        </mxCell>
        <mxCell id="sNrwuepotN1zQKSBZnrh-129" value="" style="endArrow=none;html=1;rounded=0;strokeColor=#182E3E;fontColor=#1A1A1A;" parent="WIyWlLk6GJQsqaUBKTNV-1" target="sNrwuepotN1zQKSBZnrh-107" edge="1">
          <mxGeometry width="50" height="50" relative="1" as="geometry">
            <mxPoint x="800" y="710" as="sourcePoint" />
            <mxPoint x="340" y="750" as="targetPoint" />
            <Array as="points">
              <mxPoint x="320" y="710" />
              <mxPoint x="320" y="550" />
            </Array>
          </mxGeometry>
        </mxCell>
        <mxCell id="sNrwuepotN1zQKSBZnrh-130" value="" style="endArrow=none;html=1;rounded=0;strokeColor=#182E3E;fontColor=#1A1A1A;" parent="WIyWlLk6GJQsqaUBKTNV-1" target="sNrwuepotN1zQKSBZnrh-99" edge="1">
          <mxGeometry width="50" height="50" relative="1" as="geometry">
            <mxPoint x="560" y="710" as="sourcePoint" />
            <mxPoint x="580" y="570" as="targetPoint" />
            <Array as="points">
              <mxPoint x="560" y="546" />
            </Array>
          </mxGeometry>
        </mxCell>
        <mxCell id="sNrwuepotN1zQKSBZnrh-131" value="" style="endArrow=none;html=1;rounded=0;strokeColor=#182E3E;fontColor=#1A1A1A;" parent="WIyWlLk6GJQsqaUBKTNV-1" target="sNrwuepotN1zQKSBZnrh-78" edge="1">
          <mxGeometry width="50" height="50" relative="1" as="geometry">
            <mxPoint x="800" y="710" as="sourcePoint" />
            <mxPoint x="580" y="570" as="targetPoint" />
            <Array as="points">
              <mxPoint x="800" y="546" />
            </Array>
          </mxGeometry>
        </mxCell>
        <mxCell id="sNrwuepotN1zQKSBZnrh-132" value="" style="endArrow=none;html=1;rounded=0;strokeColor=#182E3E;fontColor=#1A1A1A;" parent="WIyWlLk6GJQsqaUBKTNV-1" target="sNrwuepotN1zQKSBZnrh-109" edge="1">
          <mxGeometry width="50" height="50" relative="1" as="geometry">
            <mxPoint x="310" y="750" as="sourcePoint" />
            <mxPoint x="580" y="570" as="targetPoint" />
            <Array as="points">
              <mxPoint x="310" y="600" />
            </Array>
          </mxGeometry>
        </mxCell>
        <mxCell id="sNrwuepotN1zQKSBZnrh-133" value="" style="endArrow=none;html=1;rounded=0;strokeColor=#182E3E;fontColor=#1A1A1A;" parent="WIyWlLk6GJQsqaUBKTNV-1" edge="1">
          <mxGeometry width="50" height="50" relative="1" as="geometry">
            <mxPoint x="550" y="752" as="sourcePoint" />
            <mxPoint x="510" y="600" as="targetPoint" />
            <Array as="points">
              <mxPoint x="550" y="602" />
            </Array>
          </mxGeometry>
        </mxCell>
        <mxCell id="sNrwuepotN1zQKSBZnrh-134" value="" style="endArrow=none;html=1;rounded=0;strokeColor=#182E3E;fontColor=#1A1A1A;" parent="WIyWlLk6GJQsqaUBKTNV-1" target="sNrwuepotN1zQKSBZnrh-82" edge="1">
          <mxGeometry width="50" height="50" relative="1" as="geometry">
            <mxPoint x="792" y="752" as="sourcePoint" />
            <mxPoint x="752" y="600" as="targetPoint" />
            <Array as="points">
              <mxPoint x="792" y="602" />
            </Array>
          </mxGeometry>
        </mxCell>
        <mxCell id="sNrwuepotN1zQKSBZnrh-135" value="" style="endArrow=none;html=1;rounded=0;strokeColor=#182E3E;fontColor=#1A1A1A;" parent="WIyWlLk6GJQsqaUBKTNV-1" edge="1">
          <mxGeometry width="50" height="50" relative="1" as="geometry">
            <mxPoint x="310" y="750" as="sourcePoint" />
            <mxPoint x="800" y="750" as="targetPoint" />
          </mxGeometry>
        </mxCell>
        <mxCell id="sNrwuepotN1zQKSBZnrh-136" value="Extends" style="endArrow=block;endSize=16;endFill=0;html=1;rounded=0;strokeColor=#182E3E;fontColor=#1A1A1A;entryX=0;entryY=0.5;entryDx=0;entryDy=0;" parent="WIyWlLk6GJQsqaUBKTNV-1" target="sNrwuepotN1zQKSBZnrh-88" edge="1">
          <mxGeometry width="160" relative="1" as="geometry">
            <mxPoint x="800" y="750" as="sourcePoint" />
            <mxPoint x="890" y="820" as="targetPoint" />
          </mxGeometry>
        </mxCell>
        <mxCell id="sNrwuepotN1zQKSBZnrh-137" value="" style="endArrow=none;html=1;rounded=0;strokeColor=#182E3E;fontColor=#1A1A1A;entryX=1;entryY=0.5;entryDx=0;entryDy=0;" parent="WIyWlLk6GJQsqaUBKTNV-1" target="sNrwuepotN1zQKSBZnrh-111" edge="1">
          <mxGeometry width="50" height="50" relative="1" as="geometry">
            <mxPoint x="300" y="790" as="sourcePoint" />
            <mxPoint x="740" y="660" as="targetPoint" />
            <Array as="points">
              <mxPoint x="300" y="650" />
            </Array>
          </mxGeometry>
        </mxCell>
        <mxCell id="sNrwuepotN1zQKSBZnrh-138" value="" style="endArrow=none;html=1;rounded=0;strokeColor=#182E3E;fontColor=#1A1A1A;entryX=1;entryY=0.5;entryDx=0;entryDy=0;" parent="WIyWlLk6GJQsqaUBKTNV-1" edge="1">
          <mxGeometry width="50" height="50" relative="1" as="geometry">
            <mxPoint x="540" y="790" as="sourcePoint" />
            <mxPoint x="510" y="651" as="targetPoint" />
            <Array as="points">
              <mxPoint x="540" y="650" />
            </Array>
          </mxGeometry>
        </mxCell>
        <mxCell id="sNrwuepotN1zQKSBZnrh-139" value="" style="endArrow=none;html=1;rounded=0;strokeColor=#182E3E;fontColor=#1A1A1A;entryX=1;entryY=0.5;entryDx=0;entryDy=0;" parent="WIyWlLk6GJQsqaUBKTNV-1" edge="1">
          <mxGeometry width="50" height="50" relative="1" as="geometry">
            <mxPoint x="780" y="790" as="sourcePoint" />
            <mxPoint x="750" y="651" as="targetPoint" />
            <Array as="points">
              <mxPoint x="780" y="650" />
            </Array>
          </mxGeometry>
        </mxCell>
        <mxCell id="sNrwuepotN1zQKSBZnrh-140" value="" style="endArrow=none;html=1;rounded=0;strokeColor=#182E3E;fontColor=#1A1A1A;" parent="WIyWlLk6GJQsqaUBKTNV-1" edge="1">
          <mxGeometry width="50" height="50" relative="1" as="geometry">
            <mxPoint x="300" y="790" as="sourcePoint" />
            <mxPoint x="780" y="790" as="targetPoint" />
          </mxGeometry>
        </mxCell>
        <mxCell id="sNrwuepotN1zQKSBZnrh-141" value="Extends" style="endArrow=block;endSize=16;endFill=0;html=1;rounded=0;strokeColor=#182E3E;fontColor=#1A1A1A;" parent="WIyWlLk6GJQsqaUBKTNV-1" target="sNrwuepotN1zQKSBZnrh-90" edge="1">
          <mxGeometry width="160" relative="1" as="geometry">
            <mxPoint x="780" y="790" as="sourcePoint" />
            <mxPoint x="860" y="840" as="targetPoint" />
          </mxGeometry>
        </mxCell>
        <mxCell id="sNrwuepotN1zQKSBZnrh-142" value="" style="endArrow=open;endFill=1;endSize=12;html=1;rounded=0;strokeColor=#182E3E;fontColor=#1A1A1A;" parent="WIyWlLk6GJQsqaUBKTNV-1" source="sNrwuepotN1zQKSBZnrh-33" target="sNrwuepotN1zQKSBZnrh-90" edge="1">
          <mxGeometry width="160" relative="1" as="geometry">
            <mxPoint x="1060" y="430" as="sourcePoint" />
            <mxPoint x="1080" y="790" as="targetPoint" />
            <Array as="points">
              <mxPoint x="1080" y="213" />
              <mxPoint x="1080" y="787" />
            </Array>
          </mxGeometry>
        </mxCell>
        <mxCell id="sNrwuepotN1zQKSBZnrh-143" value="" style="endArrow=open;endFill=1;endSize=12;html=1;rounded=0;strokeColor=#182E3E;fontColor=#1A1A1A;" parent="WIyWlLk6GJQsqaUBKTNV-1" target="sNrwuepotN1zQKSBZnrh-88" edge="1">
          <mxGeometry width="160" relative="1" as="geometry">
            <mxPoint x="1080" y="747" as="sourcePoint" />
            <mxPoint x="1090" y="620" as="targetPoint" />
          </mxGeometry>
        </mxCell>
        <mxCell id="sNrwuepotN1zQKSBZnrh-144" value="" style="endArrow=open;endFill=1;endSize=12;html=1;rounded=0;strokeColor=#182E3E;fontColor=#1A1A1A;" parent="WIyWlLk6GJQsqaUBKTNV-1" target="sNrwuepotN1zQKSBZnrh-86" edge="1">
          <mxGeometry width="160" relative="1" as="geometry">
            <mxPoint x="1080" y="707" as="sourcePoint" />
            <mxPoint x="1036" y="757" as="targetPoint" />
          </mxGeometry>
        </mxCell>
        <mxCell id="R39O8ITwR0hKEiBWzbJf-0" value="&lt;b&gt;Client&lt;/b&gt;" style="html=1;whiteSpace=wrap;fillColor=#ffe6cc;strokeColor=#d79b00;" vertex="1" parent="WIyWlLk6GJQsqaUBKTNV-1">
          <mxGeometry x="905.5" y="90" width="110" height="50" as="geometry" />
        </mxCell>
        <mxCell id="R39O8ITwR0hKEiBWzbJf-1" value="" style="endArrow=open;endFill=1;endSize=12;html=1;rounded=0;" edge="1" parent="WIyWlLk6GJQsqaUBKTNV-1" source="R39O8ITwR0hKEiBWzbJf-0" target="sNrwuepotN1zQKSBZnrh-33">
          <mxGeometry width="160" relative="1" as="geometry">
            <mxPoint x="730" y="90" as="sourcePoint" />
            <mxPoint x="890" y="90" as="targetPoint" />
          </mxGeometry>
        </mxCell>
        <mxCell id="R39O8ITwR0hKEiBWzbJf-2" value="" style="endArrow=diamondThin;endFill=0;endSize=24;html=1;rounded=0;" edge="1" parent="WIyWlLk6GJQsqaUBKTNV-1" source="zkfFHV4jXpPFQw0GAbJ--17">
          <mxGeometry width="160" relative="1" as="geometry">
            <mxPoint x="590" y="120" as="sourcePoint" />
            <mxPoint x="880" y="213" as="targetPoint" />
          </mxGeometry>
        </mxCell>
      </root>
    </mxGraphModel>
  </diagram>
</mxfile>
